<svg xmlns="http://www.w3.org/2000/svg" width="648.533" height="599.999" viewBox="0 0 648.533 599.999">
  <path id="Path_4289" data-name="Path 4289" d="M567.741,202.461a18.126,18.126,0,0,0-18.127,18.126V360.075A13.326,13.326,0,0,0,562.94,373.4h54.818a21.1,21.1,0,0,1,21.1,21.1V610.42a21.1,21.1,0,0,1-21.1,21.1H563.077a13.463,13.463,0,0,0-13.463,13.463V784.333a18.127,18.127,0,0,0,18.127,18.127H1180.02a18.127,18.127,0,0,0,18.127-18.127V220.587a18.126,18.126,0,0,0-18.127-18.126Z" transform="translate(-549.614 -202.461)" fill="#3b3b3b"/>
</svg>
